<svg width="49" height="49" viewBox="0 0 49 49" fill="none" xmlns="http://www.w3.org/2000/svg">
<rect x="1" y="0.640625" width="47" height="47" rx="9.5" fill="#181818" stroke="#181818"/>
<path d="M24.75 13.833C22.4301 13.8356 20.206 14.7582 18.5656 16.3986C16.9252 18.039 16.0025 20.2631 16 22.583C16 27.2048 23.35 33.5494 24.1847 34.2581L24.75 34.7359L25.3153 34.2581C26.15 33.5494 33.5 27.2048 33.5 22.583C33.4975 20.2631 32.5748 18.039 30.9344 16.3986C29.294 14.7582 27.0699 13.8356 24.75 13.833ZM24.75 26.958C23.8847 26.958 23.0388 26.7014 22.3194 26.2207C21.5999 25.74 21.0392 25.0567 20.708 24.2572C20.3769 23.4578 20.2903 22.5782 20.4591 21.7295C20.6279 20.8808 21.0446 20.1013 21.6564 19.4894C22.2683 18.8776 23.0478 18.4609 23.8965 18.2921C24.7451 18.1233 25.6248 18.2099 26.4242 18.541C27.2237 18.8722 27.9069 19.4329 28.3877 20.1524C28.8684 20.8719 29.125 21.7177 29.125 22.583C29.1236 23.7429 28.6622 24.8549 27.8421 25.6751C27.0219 26.4952 25.9099 26.9566 24.75 26.958Z" fill="white"/>
<path d="M24.75 25.208C26.1997 25.208 27.375 24.0328 27.375 22.583C27.375 21.1333 26.1997 19.958 24.75 19.958C23.3003 19.958 22.125 21.1333 22.125 22.583C22.125 24.0328 23.3003 25.208 24.75 25.208Z" fill="white"/>
</svg>
