<svg width="48" height="49" viewBox="0 0 48 49" fill="none" xmlns="http://www.w3.org/2000/svg">
<rect x="0.5" y="0.640625" width="47" height="47" rx="9.5" fill="#181818" stroke="#181818"/>
<path d="M20.1429 15.1406H16.6364C15.7326 15.1406 15 15.8732 15 16.777C15 25.8144 22.3262 33.1406 31.3636 33.1406C32.2673 33.1406 33 32.408 33 31.5042V27.9977L29.1429 25.4263L27.1428 27.4263C26.7955 27.7738 26.2763 27.8818 25.8398 27.6563C25.0996 27.2739 23.8983 26.5554 22.7143 25.4263C21.5019 24.2703 20.7916 23.0247 20.4351 22.2711C20.2353 21.8487 20.351 21.3611 20.6814 21.0306L22.7143 18.9978L20.1429 15.1406Z" fill="white"/>
</svg>
